<svg xmlns="http://www.w3.org/2000/svg" width="512" height="512" viewBox="0 0 512 512">
  <rect width="512" height="512" fill="#111713"/>
  <g transform="translate(5.1200000000000045 5.1200000000000045) scale(0.98)"
     fill="none" stroke="#96a095" stroke-width="17" stroke-linecap="round" stroke-linejoin="round">
    <path d="M 106 300 C 100 222 168 128 264 122 C 352 118 410 206 404 290 C 398 352 340 392 250 394 C 162 396 112 362 106 300 Z"/>
    <path d="M 162 294 C 158 238 202 176 264 172 C 322 168 356 224 352 282 C 349 328 310 354 252 356 C 200 358 165 340 162 294 Z"/>
    <path d="M 216 288 C 214 252 236 216 262 214 C 290 212 308 244 306 280 C 304 308 284 322 258 323 C 232 324 218 314 216 288 Z"/>
    <circle cx="260" cy="268" r="15" fill="#a7d8b6" stroke="none"/>
  </g>
</svg>
